<?xml version="1.0" standalone="no"?>
<!DOCTYPE svg PUBLIC "-//W3C//DTD SVG 20010904//EN"
 "http://www.w3.org/TR/2001/REC-SVG-20010904/DTD/svg10.dtd">
<svg version="1.0" xmlns="http://www.w3.org/2000/svg"
 width="700.000000pt" height="700.000000pt" viewBox="0 0 700.000000 700.000000"
 preserveAspectRatio="xMidYMid meet">
<metadata>
Created by potrace 1.11, written by Peter Selinger 2001-2013
</metadata>
<g transform="translate(0.000000,700.000000) scale(0.100000,-0.100000)"
fill="#000000" stroke="none">
<path d="M3360 6413 c-378 -63 -674 -323 -787 -690 -25 -81 -27 -102 -27 -258
0 -145 3 -182 22 -250 40 -143 113 -279 215 -398 l50 -59 -295 -295 -296 -295
-88 71 c-104 85 -253 162 -369 192 -99 26 -284 36 -383 20 -393 -61 -709 -357
-799 -746 -26 -116 -24 -311 5 -429 74 -298 290 -549 568 -663 219 -89 455
-96 680 -19 129 43 220 97 327 193 l61 54 297 -297 298 -298 -48 -55 c-108
-126 -173 -241 -218 -388 -24 -80 -27 -103 -27 -253 -1 -171 7 -217 55 -350
90 -246 320 -473 569 -561 265 -94 552 -73 789 57 180 99 330 260 417 449 65
140 79 211 78 395 0 139 -3 178 -22 245 -39 143 -115 280 -226 410 l-40 46
297 297 297 297 37 -36 c134 -128 326 -222 506 -250 116 -18 315 -6 420 25
330 98 578 352 669 687 31 113 33 345 4 459 -90 353 -341 611 -692 712 -68 19
-102 23 -244 22 -138 0 -178 -3 -245 -22 -122 -33 -287 -120 -375 -196 -41
-36 -77 -66 -80 -66 -3 0 -137 132 -299 294 l-294 294 56 65 c103 121 164 236
209 392 20 69 23 103 23 245 0 142 -3 176 -23 244 -125 434 -501 720 -939 715
-59 -1 -119 -4 -133 -6z m126 -381 c50 -26 78 -56 103 -112 53 -120 48 -260
-14 -385 -30 -61 -62 -98 -265 -300 l-231 -230 -49 54 c-123 136 -176 343
-135 535 43 202 211 387 409 453 53 17 133 10 182 -15z m564 -297 c90 -178 91
-376 4 -555 -35 -72 -64 -103 -715 -755 l-679 -680 -87 88 -88 87 646 648
c355 356 659 665 676 687 113 149 174 355 159 539 l-6 81 25 -30 c14 -16 43
-66 65 -110z m540 -1888 c600 -598 673 -667 742 -706 148 -82 293 -117 451
-108 48 2 87 3 87 2 0 -1 -26 -20 -57 -42 -68 -47 -169 -89 -251 -105 -76 -14
-211 -4 -292 21 -135 42 -147 53 -856 762 l-669 669 85 85 c46 47 87 85 89 85
3 0 305 -298 671 -663z m-2850 244 c137 -47 150 -59 853 -760 l667 -666 -90
-90 -90 -90 -652 652 c-679 677 -712 707 -853 766 -112 47 -182 61 -317 61
-69 1 -124 5 -121 9 11 19 128 87 182 108 87 32 127 38 246 35 82 -2 127 -9
175 -25z m3845 14 c182 -38 343 -163 426 -330 39 -78 44 -96 44 -154 -1 -110
-51 -179 -158 -220 -80 -29 -160 -35 -244 -18 -133 29 -159 48 -414 303 l-233
233 29 31 c63 66 222 146 325 163 56 9 159 6 225 -8z m-1785 -310 l295 -295
-298 -298 -297 -297 -297 297 -298 298 295 295 c162 162 297 295 300 295 3 0
138 -133 300 -295z m-2431 -180 c114 -27 151 -55 399 -300 l234 -230 -56 -52
c-140 -130 -364 -183 -560 -133 -115 29 -189 73 -282 165 -130 128 -190 281
-154 390 14 44 71 110 112 131 82 43 201 54 307 29z m2494 -1187 c-677 -679
-707 -712 -766 -853 -48 -114 -61 -182 -61 -317 -1 -71 -1 -128 -2 -128 -1 0
-20 27 -43 60 -148 211 -143 522 11 723 17 23 324 336 682 695 l651 652 90
-90 90 -90 -652 -652z m109 -487 c159 -176 193 -458 82 -679 -85 -167 -291
-322 -430 -322 -175 0 -285 185 -241 403 28 135 49 164 302 417 127 127 233
230 237 230 3 0 26 -22 50 -49z"/>
</g>
</svg>
