<svg xmlns="http://www.w3.org/2000/svg" width="810" height="261" viewBox="0 0 330511 106356" shape-rendering="geometricPrecision" text-rendering="geometricPrecision" image-rendering="optimizeQuality" fill-rule="evenodd" clip-rule="evenodd"><defs><style>.fil3,.fil4{fill:#686664;fill-rule:nonzero}.fil3{fill:url(#id0)}.fil0,.fil1,.fil2{fill:url(#id1);fill-rule:nonzero}.fil0,.fil2{fill:url(#id2)}.fil0{fill:url(#id3)}</style><linearGradient id="id0" gradientUnits="userSpaceOnUse" x1="52899.3" y1="50091.1" x2="106643" y2="50872.2"><stop offset="0" stop-color="#473066"/><stop offset="0" stop-color="#473066"/><stop offset=".99" stop-color="#0097db"/><stop offset="1" stop-color="#0097db"/></linearGradient><linearGradient id="id1" gradientUnits="userSpaceOnUse" x1="51532.8" y1="59719.7" x2="1636.03" y2="52028.5"><stop offset="0" stop-color="#f39313"/><stop offset="0" stop-color="#f39313"/><stop offset=".99" stop-color="#fd0"/><stop offset="1" stop-color="#fd0"/></linearGradient><linearGradient id="id2" gradientUnits="userSpaceOnUse" x1="61842.3" y1="59416.9" x2="49943.1" y2="100126"><stop offset="0" stop-color="#3cb7ab"/><stop offset=".01" stop-color="#3cb7ab"/><stop offset=".99" stop-color="#96c22b"/><stop offset="1" stop-color="#96c22b"/></linearGradient><linearGradient id="id3" gradientUnits="userSpaceOnUse" x1="46673.4" y1="42053.7" x2="54252.8" y2="11115.2"><stop offset="0" stop-color="#d62243"/><stop offset="1" stop-color="#e94892"/></linearGradient></defs><g id="Слой_x0020_1"><path class="fil0" d="M60451 34967l4337-4337 751-751c1607-1606 2869-3477 3752-5562 914-2161 1378-4453 1378-6816 0-2361-463-4654-1377-6813-881-2084-2143-3956-3749-5561-1607-1607-3477-2868-5562-3749C57822 465 55530 1 53169 1c-2362 0-4654 463-6813 1376-2084 881-3956 2143-5562 3749s-2868 3477-3749 5562c-913 2159-1377 4451-1377 6813 0 3098 821 6143 2375 8807 852 1461 1914 2790 3141 3944l-8671 8671-435 435-1821 1821 4337 4337 1875-1875 20622-20622c3109-2953 4777-7100 4576-11382-30-644-103-1282-214-1908 2628 2800 3859 6926 2561 11255-520 1733-1529 3282-2812 4558l-1 1-21035 21035-2256 2256 4337 4337 10548-10548 4338-4338 3317-3317zm-7452-16521c-109 103-184 174-184 174l-7289 7289c-2337-2135-3724-5191-3724-8409 0-3036 1183-5890 3329-8037 1297-1297 2853-2242 4551-2787 2146-689 4470 424 5284 2526 861 2219 810 4821-432 7264-380 748-925 1403-1536 1979z"/><path class="fil1" d="M34967 45887l-4337-4337-751-751c-1606-1607-3477-2869-5562-3752-2160-915-4453-1378-6816-1378-2361 0-4654 463-6813 1377-2084 881-3955 2143-5561 3749-1607 1606-2868 3477-3749 5562C465 48516 1 50808 1 53169s463 4654 1376 6813c882 2084 2143 3955 3749 5562 1606 1606 3477 2868 5561 3749 2160 914 4451 1377 6813 1377 3098 0 6143-822 8807-2375 1461-852 2790-1914 3944-3141l8671 8671 435 435 1821 1821 4337-4337-1875-1875-20622-20622c-2953-3109-7100-4777-11381-4576-645 30-1282 102-1908 214 2800-2628 6926-3859 11255-2561 1733 520 3282 1529 4558 2812l1 1 21034 21035 2256 2256 4337-4338-10547-10547-4338-4338-3317-3317zm-16521 7452c103 109 174 184 174 184l7289 7289c-2135 2337-5191 3723-8409 3723-3036 0-5890-1182-8037-3329-1297-1298-2242-2853-2787-4551-689-2147 424-4470 2526-5285 2219-860 4821-810 7264 433 748 380 1403 925 1979 1536z"/><path class="fil2" d="M45905 71389l-4337 4337-751 751c-1607 1606-2869 3477-3752 5562-914 2161-1378 4453-1378 6816 0 2361 463 4654 1376 6813 881 2084 2143 3956 3749 5562 1607 1606 3477 2868 5562 3749 2160 913 4452 1377 6813 1377s4654-463 6813-1376c2084-881 3956-2143 5562-3749 1607-1606 2868-3477 3749-5561 913-2160 1377-4452 1377-6813 0-3098-821-6143-2375-8807-852-1461-1913-2790-3140-3944l8670-8671 435-435 1821-1821-4337-4337-1875 1875-20622 20622c-3109 2953-4777 7100-4576 11382 30 644 102 1282 214 1908-2628-2800-3858-6926-2560-11255 520-1733 1529-3282 2811-4558l1-1 21035-21035 2256-2256-4337-4337-10548 10548-4337 4337-3317 3317zm7452 16521c109-103 185-174 185-174l7289-7289c2337 2135 3723 5191 3723 8409 0 3036-1182 5890-3329 8037-1298 1297-2854 2242-4551 2787-2147 689-4470-424-5285-2526-860-2219-810-4821 433-7264 380-748 925-1403 1535-1979z"/><path class="fil3" d="M71389 60469l4337 4337 751 751c1606 1607 3477 2869 5562 3752 2161 915 4454 1378 6816 1378 2361 0 4654-463 6813-1377 2084-881 3956-2143 5562-3749s2868-3477 3749-5561c914-2160 1377-4452 1377-6813s-463-4654-1376-6813c-881-2084-2143-3955-3749-5561-1606-1607-3477-2868-5561-3749-2160-914-4452-1377-6813-1377-3098 0-6143 821-8806 2374-1462 852-2791 1914-3945 3141l-8671-8670-435-435-1821-1821-4337 4337 1875 1875 20622 20622c2953 3109 7100 4777 11382 4576 644-30 1282-102 1908-214-2800 2628-6926 3859-11255 2561-1733-520-3282-1529-4558-2811l-1-1-21035-21035-2256-2256-4337 4338 10548 10548 4337 4337 3317 3317zm16521-7452c-103-109-174-184-174-184l-7289-7289c2134-2337 5190-3723 8408-3723 3036 0 5890 1182 8037 3329 1298 1298 2243 2853 2787 4551 688 2147-425 4470-2527 5285-2219 860-4821 810-7264-433-748-380-1403-925-1979-1536z"/><g id="_1499881952"><path class="fil4" d="M149511 44551c626 0 895 267 895 895v5326c0 895-537 1344-1745 1344-1209 0-1746-449-1746-1344v-2819h-14234c-2640 0-4430-1433-4430-4789V19127c0-1656 939-3044 3804-3044 1253 0 2238 268 2954 850-312-134-671-179-1029-179-1611 0-2239 850-2239 1702v24528c0 1163 448 1566 1567 1566h9266V19126c0-1656 940-3044 3804-3044 1253 0 2238 268 2954 850-312-134-671-179-1029-179-1611 0-2239 850-2239 1702v26095h3447zm-16247-628c-627 0-895-268-895-895V18724c0-895 537-1342 1745-1342s1745 446 1745 1342v22783h6088v2416h-8683zm13428-25199c0-895 537-1342 1745-1342s1745 446 1745 1342v22783c2552 0 4342 1432 4342 4789v4072c0 1657-941 3044-3805 3044-1253 0-2237-267-2953-850 312 134 671 179 1028 179 1611 0 2238-850 2238-1700v-5550c0-1165-447-1568-1567-1568h-2774V18724zM158102 21589c0-1521 449-2595 1523-3490 1029-852 2909-1477 4385-1656-1477 582-2416 2193-2416 4700v10339h11771c805 0 1387 492 1387 1700 0 1210-582 1702-1387 1702h-11771v8102c0 1163 446 1566 1566 1566h11548c805 0 1388 492 1388 1700 0 1210-582 1702-1388 1702h-12175c-2641 0-4432-1433-4432-4789V21590zm9176-1745c-1120 0-1566 404-1566 1567v7028h7474c1745 0 2865 761 2865 3222 0 1299-312 2103-895 2595 134-313 224-716 224-1163 0-1523-851-2239-1969-2239h-11191v-9623c0-3356 1791-4789 4432-4789h7833c805 0 1387 492 1387 1700 0 1210-582 1702-1387 1702h-7207zm-1566 15665v5999h8817c1746 0 2865 761 2865 3222 0 1299-314 2103-895 2595 135-313 223-716 223-1163 0-1523-850-2239-1970-2239h-11637c-626 0-895-268-895-895v-7520h3492zm626-12621v-1523c0-626 270-895 895-895h7296c1119 0 1970-716 1970-2237 0-449-90-850-223-1165 581 494 895 1299 895 2597 0 2462-1120 3223-2865 3223h-7968zM197536 45670c0 895-537 1342-1746 1342s-1746-446-1746-1342V35195h-10472v10475c0 895-537 1342-1746 1342s-1746-446-1746-1342V19127c0-1656 940-3044 3805-3044 1253 0 2238 268 2954 850-314-134-672-179-1030-179-1611 0-2237 850-2237 1702v13786h13965v13428zm-9847-403c0 1657-941 3044-3805 3044-1253 0-2238-270-2954-850 314 134 672 179 1030 179 1611 0 2237-852 2237-1702V35823h3492v9444zm13965 0c0 1657-940 3044-3805 3044-1253 0-2238-270-2954-850 314 134 672 179 1030 179 1611 0 2237-852 2237-1702V31615h-13965V18724c0-895 537-1342 1746-1342s1746 446 1746 1342v10026h10472V18724c0-895 537-1342 1746-1342s1746 446 1746 1342v26543zm-7610-26140c0-1656 941-3044 3805-3044 1254 0 2238 268 2954 850-314-134-672-179-1030-179-1611 0-2237 850-2237 1702v9668h-3492v-8997zM213156 22887h-4744c-1746 0-2865-761-2865-3223 0-1299 314-2103 895-2597-135 315-223 716-223 1165 0 1521 850 2237 1970 2237h8459v25201c0 895-537 1342-1746 1342-1208 0-1745-446-1745-1342V22887zm7609 22380c0 1657-939 3044-3804 3044-1253 0-2239-270-2955-850 314 134 672 179 1030 179 1611 0 2238-852 2238-1702V19843h-9042c-805 0-1388-491-1388-1702 0-1208 582-1700 1388-1700h17277c1745 0 2865 761 2865 3222 0 1208-269 2015-761 2507 45-134 91-358 91-537 0-1253-672-1791-1746-1791h-5192v25424zm5103-24798c761 0 1208 358 1208 1210 0 850-446 1208-1208 1208h-4476v-2418h4476zM232268 21589c0-1521 446-2595 1521-3490 1030-852 2910-1477 4387-1656-1477 582-2418 2193-2418 4700v12891h4476c3089 0 5192-2148 5192-6624v-449c0-2685-1298-4072-3714-4072h-1208v-1208c0-895 313-1210 1208-1210h716c3984 0 6491 2015 6491 7878 0 4655-3044 9131-8729 9131h-4432v8192c0 895-537 1342-1745 1342s-1745-446-1745-1342V21591zm4118 16517h3490v7162c0 1657-939 3044-3804 3044-1253 0-2238-270-2954-850 312 134 671 179 1029 179 1611 0 2239-852 2239-1702v-7833zm0-16875c0-3356 1790-4789 4431-4789h1701c6266 0 10519 3581 10519 10518 0 6088-3313 9847-9131 10430 3044-1165 5639-4431 5639-9042 0-6266-2774-8504-7116-8504h-537c-1566 0-2015 447-2015 1970v9220h1836c1163 0 2148-313 2819-1118-582 2149-2014 3490-4297 3490h-3848V21231zM137426 85095c3133 0 5236-1387 5236-6846v-2955c-984 1432-3267 2461-5684 2461-5237 0-8727-3893-8727-10339v-8281c0-1654 939-3044 3804-3044 1253 0 2238 270 2954 852-312-136-671-179-1029-179-1611 0-2239 850-2239 1700v9131c0 4476 2418 6758 5462 6758s5460-2283 5460-6758v-8460c0-1654 940-3044 3805-3044 1253 0 2238 270 2954 852-314-136-672-179-1030-179-1611 0-2237 850-2237 1700v19873c0 6625-2507 10160-8819 10160-2596 0-5505-984-6982-2729-269-315-447-673-447-1031 0-401 223-850 716-1342 447-448 939-671 1388-671 268 0 537 134 895 446 1432 1344 2909 1924 4520 1924zm-5415-2998c-672 0-1209 224-1746 761-223 224-403 492-537 716 44-716 269-1387 805-2015 850-984 1701-1432 2552-1432 625 0 1298 270 1879 716 1030 807 2283 1208 3760 1208 1344 0 2462-492 3134-1341-627 3490-2776 3760-4432 3760-1476 0-2686-449-4028-1702-448-401-895-671-1387-671zm7250-10788c-2462 0-3402-1521-3402-3848v-8727c0-895-537-1344-1745-1344s-1745 448-1745 1344v8727c0 4163 2192 6266 4834 6266 1790 0 3446-895 4297-3089-493 403-1254 671-2239 671zm3000 16875c2999-1521 4520-4342 4520-9893V58733c0-895 537-1344 1746-1344s1746 448 1746 1344v19470c0 4968-2821 8907-8012 9981zM155195 61598c0-1523 446-2597 1521-3492 1030-850 2910-1477 4387-1657-1477 582-2418 2194-2418 4700v24528c0 895-537 1344-1745 1344s-1745-448-1745-1344V61597zm7608 23676c0 1656-939 3044-3804 3044-1253 0-2238-268-2954-850 313 134 671 179 1029 179 1611 0 2239-850 2239-1700V61240c0-3358 1790-4791 4431-4791h8952c2640 0 4431 1433 4431 4791v24035c0 1656-939 3044-3804 3044-1253 0-2238-268-2954-850 313 134 671 179 1029 179 1611 0 2239-850 2239-1700V61420c0-1165-449-1569-1567-1569h-7699c-1118 0-1567 404-1567 1569v23855zm628-22380v-1521c0-628 268-895 895-895h7787c628 0 895 268 895 895v24304c0 895-537 1344-1745 1344s-1745-448-1745-1344V62894h-6088zM181153 66117c0-5684 4163-9310 9355-10115-3223 1163-5863 4476-5863 9981v9086h15040v10608c0 895-538 1344-1746 1344-1209 0-1746-448-1746-1344v-7653h-11547v7653c0 895-537 1344-1746 1344s-1746-448-1746-1344V66116zm7610 19157c0 1656-940 3044-3805 3044-1253 0-2238-268-2954-850 314 134 672 179 1030 179 1611 0 2237-850 2237-1700v-7297h3492v6625zm-3492-19157c0-5996 3134-10205 9266-10205s9266 4208 9266 10205v19157c0 1656-941 3044-3805 3044-1253 0-2238-268-2954-850 314 134 672 179 1030 179 1611 0 2237-850 2237-1700V74444h-15039v-8327zm15039 404c0-5460-2686-7207-5774-7207s-5774 1747-5774 7207v5058h11547v-5058zm-4118 4431h3492v-4476c0-4431-2104-6534-5148-6534-2596 0-4118 1433-4699 3490 671-671 1700-1117 2865-1117 2327 0 3490 1475 3490 4207v4431zM220407 59135c0-1654 939-3044 3804-3044 1253 0 2239 270 2955 852-314-136-672-179-1030-179-1611 0-2238 850-2238 1700v1745c0 4208-1701 7656-6087 10296l-6535 3939c-582 312-851 582-851 1387v9847c0 895-537 1344-1745 1344s-1745-448-1745-1344V59135c0-1654 939-3044 3804-3044 1253 0 2238 270 2954 852-313-136-671-179-1029-179-1611 0-2239 850-2239 1700v12936c135-224 403-448 716-628l4432-2506c3670-2103 4834-4789 4834-8279v-852zm4118-401c0-895 537-1344 1746-1344 1208 0 1745 448 1745 1344v1163c0 4342-1299 8011-4565 11055 3537 3268 5461 7476 5461 13294v1029c0 1656-940 3044-3805 3044-1254 0-2237-268-2953-850 313 134 671 179 1029 179 1611 0 2238-850 2238-1700v-1611c0-4925-1388-8281-4520-11370l-5506 3492c-537 313-806 671-851 984v7833c0 1656-939 3044-3804 3044-1253 0-2238-268-2954-850 313 134 671 179 1029 179 1611 0 2239-850 2239-1700v-9983c0-491 88-671 492-938l6579-4029c4567-2774 6401-6176 6401-10742v-1521zm-9982 9489l-3490 1970V58735c0-895 537-1344 1745-1344s1745 448 1745 1344v9489zm10251 17455c0 895-537 1344-1745 1344-1209 0-1746-448-1746-1344v-1341c0-3672-1074-6582-3357-8819l2776-1702c2595 2328 4072 5866 4072 10521v1341zM231372 66117c0-5684 4162-9310 9354-10115-3222 1163-5864 4476-5864 9981v11907c0 5460 2685 7205 5775 7205 3089 0 5775-1745 5775-7205V66520c0-2731-1165-4207-3492-4207-1163 0-2193 446-2865 1117 582-2057 2104-3490 4700-3490 3044 0 5147 2103 5147 6534v11816c0 5999-3132 10205-9265 10205s-9265-4206-9265-10205V66115zm22647 12175c0 5686-4162 9310-9354 10117 3223-1165 5864-4476 5864-9981V66521c0-5460-2686-7207-5775-7207s-5775 1747-5775 7207v11370c0 2729 1165 4207 3492 4207 1163 0 2192-446 2865-1120-582 2060-2104 3492-4700 3492-3044 0-5147-2103-5147-6536V66117c0-5996 3132-10205 9265-10205s9265 4208 9265 10205v12175zM257152 61598c0-1523 448-2597 1523-3492 1029-850 2909-1477 4385-1657-1476 582-2416 2194-2416 4700v10339h5774c2954 0 4834-1790 4834-4519 0-3134-1253-4074-3402-4074h-2462v-1521c0-628 270-895 895-895h2327c3492 0 5999 2282 5999 6042 0 2865-1165 4967-3760 6312 3446 1299 4431 3848 4431 7071 0 4075-2998 8057-9400 8057h-4297c-2641 0-4432-1432-4432-4789V61599zm3492 21394c0 1165 446 1566 1566 1566h3938c3626 0 5775-1833 5775-5056 0-2821-1567-4612-4432-4612h-6847v8102zm5057-26543c-2641 0-4432 1433-4432 4791v9623h5237c2327 0 3849-1344 4163-3313-582 673-1209 895-2193 895h-3715v-7025c0-1165 446-1569 1566-1569h2193c3760 0 6713 2327 6713 6670 0 2910-1118 4879-3222 6221 2865 1432 3895 3850 3895 7161 0 4208-2686 7028-5998 8057 5461 0 9355-3982 9355-9086 0-3490-1611-5996-4252-7340 2327-1433 3581-3715 3581-6579 0-4746-3537-8506-9221-8506h-3670zm-3536 27484c-626 0-895-270-895-895v-7520h3492v5997h4476c716 0 1476-222 2014-671-716 2060-2506 3089-4969 3089h-4118zM294749 59135c0-1654 939-3044 3804-3044 1253 0 2239 270 2955 852-313-136-672-179-1030-179-1611 0-2238 850-2238 1700v1745c0 4208-1701 7656-6088 10296l-6535 3939c-581 312-851 582-851 1387v9847c0 895-537 1344-1745 1344s-1745-448-1745-1344V59135c0-1654 939-3044 3804-3044 1254 0 2238 270 2954 852-312-136-671-179-1029-179-1611 0-2239 850-2239 1700v12936c135-224 404-448 717-628l4432-2506c3670-2103 4834-4789 4834-8279v-852zm4118-401c0-895 537-1344 1746-1344 1208 0 1745 448 1745 1344v1163c0 4342-1299 8011-4565 11055 3536 3268 5461 7476 5461 13294v1029c0 1656-941 3044-3805 3044-1253 0-2237-268-2953-850 312 134 671 179 1029 179 1611 0 2238-850 2238-1700v-1611c0-4925-1388-8281-4520-11370l-5506 3492c-537 313-805 671-851 984v7833c0 1656-940 3044-3804 3044-1253 0-2238-268-2954-850 312 134 671 179 1029 179 1611 0 2239-850 2239-1700v-9983c0-491 89-671 492-938l6579-4029c4567-2774 6401-6176 6401-10742v-1521zm-9982 9489l-3490 1970V58735c0-895 537-1344 1745-1344s1745 448 1745 1344v9489zm10251 17455c0 895-538 1344-1745 1344-1209 0-1746-448-1746-1344v-1341c0-3672-1074-6582-3357-8819l2776-1702c2595 2328 4073 5866 4073 10521v1341zM311890 72966l14502-13115v25827c0 895-537 1344-1745 1344s-1745-448-1745-1344V67282l-11012 10430v7966c0 895-537 1344-1745 1344s-1745-448-1745-1344V59135c0-1654 939-3044 3804-3044 1253 0 2238 270 2954 852-313-136-671-179-1029-179-1611 0-2239 850-2239 1700v14502zm628 4968v8013c0 850-628 1700-2239 1700-358 0-716-45-1029-179 717 582 1701 850 2954 850 2865 0 3804-1387 3804-3044V74622l-3490 3311zm0-6221l13516-12399c448-446 986-312 986 179v26454c0 850-628 1700-2239 1700-358 0-716-45-1029-179 717 582 1701 850 2954 850 2865 0 3804-1387 3804-3044V59134c0-1654-940-3044-3804-3044-1388 0-2462 358-3402 1210l-7296 6713v-5280c0-895-537-1344-1745-1344s-1745 448-1745 1344v12979z"/></g></g></svg>