<svg xmlns="http://www.w3.org/2000/svg" width="205" height="37" viewBox="0 0 205311 37053" shape-rendering="geometricPrecision" text-rendering="geometricPrecision" image-rendering="optimizeQuality" fill-rule="evenodd" clip-rule="evenodd"><defs><style>.fil0{fill:#d92340;fill-rule:nonzero}</style></defs><g id="Layer_x0020_1"><g id="_723841952"><path class="fil0" d="M9354 14923c-109 458-502 677-1178 677-370 0-633-66-784-196-154-132-196-306-154-503l1136-5803H5930c-850 0-1571 349-2182 1047-610 698-1024 1658-1265 2903l-350 1854c-109 459-500 677-1178 677-370 0-632-65-784-196-154-131-196-305-154-502l436-2269c415-2160 1397-3601 2945-4342-1266-719-1723-1964-1396-3731 284-1461 916-2574 1876-3359C4839 395 6017 2 7412 2h4015c545 0 763 240 655 719L9353 14925zM6170 7309h2574l1047-5433H7217c-1701 0-2728 917-3077 2728-349 1810 328 2705 2030 2705zM13477 7789c240-1222 807-2182 1723-2859 917-675 1942-1026 3054-1026 1113 0 1986 328 2619 1004 633 677 828 1615 589 2837l-764 3992c-240 1243-785 2204-1657 2880-873 675-1811 1003-2815 1003-982 0-1702-305-2160-938l-938 4778c-109 458-480 698-1113 698-349 0-588-65-719-196-131-130-175-304-131-502l2313-11672zm1157 3883c-131 719-44 1265 261 1658 305 392 763 588 1353 588 588 0 1112-196 1571-588 458-394 763-939 893-1658l764-3862c131-719 44-1266-261-1658-306-393-764-589-1352-589-589 0-1113 196-1571 589-459 393-764 939-894 1658l-764 3862zM24254 4625c65-458 436-698 1113-698 326 0 567 65 698 195 130 132 175 306 153 525l-894 4581c109-131 284-263 524-393l1482-785c1418-720 2249-1702 2489-2945l86-436c65-458 436-698 1113-698 326 0 567 65 698 196s175 305 153 523l-109 480c-153 850-459 1593-917 2225-458 634-1112 1201-1985 1725 742 764 1222 1505 1441 2246 218 743 218 1746 0 3033l-89 502c-109 459-479 677-1112 677-350 0-589-65-720-196s-174-305-131-502l66-370c196-1004 196-1812 21-2445-174-632-589-1286-1266-1962l-1723 959c-239 154-392 349-435 589l-634 3229c-109 458-479 677-1112 677-349 0-589-66-720-196-131-131-175-306-131-503l1942-10232zM33656 7352c196-958 742-1766 1615-2443s1876-1004 3012-1004c1287 0 2203 371 2727 1134 524 764 677 1768 436 3012l-720 3708c-240 1199-807 2139-1702 2837-894 698-1919 1048-3076 1048-1156 0-2051-328-2663-1004-609-677-828-1505-632-2486 305-1593 1440-2598 3403-3033l2400-546c589-130 917-326 982-588l88-415c109-610 21-1091-284-1440s-742-524-1309-524c-588 0-1112 175-1548 524s-698 763-808 1265l-21 154c-65 414-436 633-1113 633-654 0-938-240-828-699l43-131zm2663 6611c567 0 1068-174 1526-524 458-348 743-872 873-1548l371-1986c-109 110-326 219-654 306l-2313 545c-830 196-1331 698-1485 1505-65 459 44 852 350 1178 304 328 762 503 1352 503l-21 21zM48294 11019h-1811c-1222 0-1985 740-2290 2246l-305 1615c-109 436-480 654-1113 654-350 0-589-64-720-174-130-110-174-263-130-459l283-1526c306-1593 1026-2663 2139-3208-873-655-1201-1571-982-2749 196-961 698-1745 1483-2356 787-610 1702-917 2727-917h3404c196 0 328 66 415 196 88 131 109 284 88 480l-1965 10079c-109 436-479 655-1112 655-350 0-590-66-720-175-131-110-174-261-131-458l742-3905zm328-1658l677-3469h-1811c-568 0-1048 153-1440 480-393 326-633 740-743 1243-108 524-21 938 263 1243 284 306 720 458 1287 458l1767 45zM64852 4713c66-458 436-698 1113-698 349 0 589 65 719 196 132 130 175 305 153 523l-2246 11564c-240 1244-829 2225-1767 2945-938 719-2030 1069-3273 1069-675 0-1352-154-2050-436-698-284-1004-655-938-1092 64-240 218-458 458-675 240-219 458-328 654-328s349 44 459 153c458 414 1024 633 1701 633 720 0 1331-219 1832-633 503-414 829-1003 982-1766l261-1441c-654 610-1482 917-2508 917s-1833-328-2444-1004c-612-677-785-1637-546-2880l1375-7090c66-458 436-698 1113-698 328 0 568 65 698 196 131 131 175 305 154 523l-1375 7026c-131 698-44 1242 261 1636 305 393 764 589 1353 589 588 0 1112-196 1571-589 458-394 763-938 894-1658l1396-6981zM74778 5912h-3882l-1746 9011c-109 458-479 677-1113 677-349 0-588-66-720-196-130-132-174-306-130-503l1920-9862c109-567 415-850 917-850h6284c240 0 414 66 524 219 108 151 153 349 108 610l-1920 9862c-108 458-480 677-1112 677-349 0-589-66-720-196-130-131-174-306-130-503l1722-8945zM78965 7352c198-958 742-1766 1615-2443s1876-1004 3012-1004c1287 0 2203 371 2727 1134 524 764 677 1768 436 3012l-720 3708c-240 1199-807 2139-1701 2837-895 698-1920 1048-3077 1048-1156 0-2051-328-2662-1004-610-677-829-1505-633-2486 305-1593 1441-2598 3403-3033l2400-546c589-130 917-326 983-588l86-415c110-610 21-1091-284-1440s-740-524-1309-524c-588 0-1112 175-1548 524s-698 763-807 1265l-22 154c-65 414-436 633-1112 633-655 0-939-240-829-699l43-131zm2663 6611c567 0 1068-174 1527-524 458-348 742-872 873-1548l370-1986c-109 110-326 219-654 306l-2313 545c-830 196-1331 698-1485 1505-65 459 44 852 350 1178 304 328 763 503 1352 503l-21 21zM89350 4625c65-458 436-698 1113-698 326 0 567 65 698 195 130 132 175 306 153 525l-894 4581c109-131 284-263 524-393l1482-785c1418-720 2249-1702 2489-2945l86-436c65-458 436-698 1113-698 326 0 567 65 699 196 130 131 174 305 151 523l-109 480c-153 850-459 1593-917 2225-458 634-1112 1201-1985 1725 742 764 1222 1505 1441 2246 218 743 218 1746 0 3033l-89 502c-109 459-479 677-1112 677-350 0-589-65-720-196s-174-305-131-502l66-370c196-1004 196-1812 21-2445-174-632-589-1286-1266-1962l-1723 959c-239 154-392 349-435 589l-634 3229c-109 458-479 677-1112 677-349 0-589-66-720-196-131-131-175-306-131-503l1942-10232zM105952 11717c-239 1198-806 2137-1722 2814-917 677-1942 1026-3055 1026-1112 0-1985-349-2618-1026s-829-1616-589-2814l764-4015c239-1201 807-2139 1723-2815 916-675 1941-1026 3054-1026 1112 0 1985 350 2619 1026 632 677 828 1615 588 2815l-764 4015zm-1198-3950c130-698 43-1243-263-1636-305-393-764-589-1352-589-590 0-1113 196-1572 589-458 393-763 938-894 1658l-764 3883c-130 719-43 1265 263 1658 305 392 764 588 1353 588 588 0 1112-196 1570-588 459-394 764-939 895-1637l764-3927zM107718 15360c-153 0-284-66-370-175-88-109-110-240-88-393l1942-10079c21-154 108-284 240-394 130-108 283-174 435-174h3666c1026 0 1789 284 2313 852 524 567 698 1265 524 2115-196 1071-787 1855-1768 2379 938 568 1288 1462 1048 2706-174 894-633 1636-1397 2246-763 610-1701 917-2814 917h-3731zm1702-1702h2181c545 0 1004-153 1375-436 371-284 612-677 720-1157 109-502 21-894-240-1199s-654-458-1199-458h-2182l-654 3251zm4953-6392c86-436 21-785-219-1048-240-261-589-392-1047-392h-2160l-567 2900h2159c459 0 852-130 1178-393 328-261 545-610 634-1047l21-21zM119019 4625c65-458 436-698 1113-698 326 0 567 65 698 195 130 132 174 306 153 525l-894 4581c109-131 283-263 523-393l1483-785c1418-720 2247-1702 2488-2945l88-436c65-458 435-698 1113-698 326 0 567 65 697 196 132 131 175 305 154 523l-110 480c-151 850-458 1593-916 2225-459 634-1112 1201-1985 1725 742 764 1222 1505 1440 2246 219 743 219 1746 0 3033l-88 502c-110 459-479 677-1112 677-350 0-590-65-720-196-131-131-174-305-131-502l65-370c196-1004 196-1812 22-2445-174-632-589-1286-1266-1962l-1723 959c-240 154-393 349-436 589l-633 3229c-109 458-479 677-1113 677-348 0-588-66-719-196-131-131-175-306-131-503l1942-10232zM128420 7352c198-958 743-1766 1616-2443s1876-1004 3012-1004c1287 0 2203 371 2727 1134 524 764 677 1768 436 3012l-720 3708c-240 1199-807 2139-1702 2837-894 698-1919 1048-3076 1048-1156 0-2052-328-2663-1004-610-677-828-1505-632-2486 304-1593 1440-2598 3403-3033l2400-546c588-130 917-326 982-588l86-415c110-610 22-1091-284-1440-304-349-740-524-1308-524-589 0-1112 175-1548 524s-698 763-808 1265l-22 154c-64 414-435 633-1112 633-654 0-938-240-829-699l43-131zm2663 6611c568 0 1069-174 1527-524 458-348 742-872 873-1548l370-1986c-108 110-326 219-654 306l-2313 545c-829 196-1330 698-1483 1505-65 459 44 852 349 1178 305 328 763 503 1353 503l-22 21zM139307 14247c-305 1506-1134 2837-2465 3993-196 151-393 240-589 240-240 0-458-110-633-306-174-196-240-393-218-589 21-109 109-261 263-459 762-828 1242-1745 1438-2770l66-370c65-328 218-590 435-787 219-196 503-284 830-284 348 0 610 88 763 284s196 436 131 743l-22 305zM70020 24092c65-457 436-698 1113-698 348 0 588 66 720 196 130 132 174 306 151 524l-1985 10188c-109 459-479 677-1112 677-350 0-590-65-720-195-131-131-175-306-131-503l894-4581h-3796l-895 4581c-108 458-479 677-1112 677-349 0-589-65-720-196-130-130-174-306-130-503l1985-10188c66-458 436-698 1113-698 326 0 567 66 698 196 131 131 175 305 153 523l-763 3906h3796l742-3906zM73967 26776c198-959 742-1767 1616-2443 872-677 1875-1004 3010-1004 1287 0 2204 371 2727 1134 524 764 677 1767 436 3010l-720 3710c-239 1199-806 2137-1702 2837-893 698-1919 1047-3076 1047-1156 0-2051-328-2662-1003-610-677-829-1506-633-2488 305-1592 1441-2596 3403-3033l2400-545c589-130 917-326 982-589l88-415c109-610 21-1091-284-1438-305-350-742-524-1308-524-589 0-1113 174-1550 524-436 348-698 763-808 1265l-21 154c-65 414-436 632-1113 632-654 0-938-240-828-698l43-131zm2663 6611c568 0 1068-174 1526-524 459-348 743-873 874-1548l370-1986c-109 110-328 219-654 305l-2313 546c-830 196-1331 698-1485 1505-65 458 44 852 350 1178 304 328 763 502 1352 502l-21 22zM89152 24049c65-459 436-699 1112-699 328 0 567 66 699 196 130 132 174 306 151 524l-894 4581c109-130 284-261 524-392l1483-787c1418-719 2247-1701 2488-2945l88-436c65-457 435-698 1112-698 328 0 568 66 699 196 130 132 174 306 153 524l-110 480c-153 850-458 1592-916 2225-459 633-1113 1201-1985 1723 742 764 1221 1506 1440 2247 218 742 218 1746 0 3033l-88 502c-110 459-480 677-1113 677-349 0-589-66-719-196-132-131-175-306-132-503l66-370c196-1003 196-1811 22-2444-175-633-589-1287-1266-1964l-1723 961c-240 153-393 349-436 589l-633 3228c-109 459-479 677-1113 677-349 0-589-65-719-195-131-131-175-306-131-503l1942-10232zM98553 26776c198-959 743-1767 1616-2443 873-677 1875-1004 3010-1004 1287 0 2204 371 2728 1134 524 764 675 1767 435 3010l-719 3710c-240 1199-807 2137-1702 2837-894 698-1920 1047-3076 1047-1157 0-2052-328-2663-1003-610-677-828-1506-633-2488 305-1592 1441-2596 3403-3033l2401-545c588-130 916-326 982-589l86-415c110-610 22-1091-284-1438-305-350-740-524-1308-524-589 0-1113 174-1548 524-436 348-699 763-808 1265l-22 154c-65 414-436 632-1112 632-655 0-938-240-829-698l43-131zm2663 6611c568 0 1068-174 1527-524 458-348 742-873 873-1548l370-1986c-109 110-328 219-654 305l-2313 546c-829 196-1331 698-1485 1505-65 458 44 852 350 1178 305 328 763 502 1353 502l-22 22zM112407 34870c-349 0-589-65-719-196-132-131-175-305-132-502l655-3426c65-218-21-414-261-589l-808-589c-828 612-1440 1222-1832 1855-393 633-698 1440-894 2444l-44 261c-66 436-436 655-1113 655-349 0-589-66-719-175-132-110-175-261-153-458l86-415c219-1199 589-2181 1091-2945s1244-1505 2226-2225c-610-545-1004-1113-1178-1702-175-589-175-1308-22-2160l131-654c65-459 436-699 1113-699 326 0 567 66 698 196 130 132 174 306 153 524l-109 480c-154 764-131 1418 65 1942 196 523 633 981 1288 1396l523 349c131 88 219 196 239 328l874-4495c65-458 436-698 1112-698 326 0 567 66 699 196 130 131 174 305 153 523l-873 4495c65-153 196-261 370-326l655-349c807-415 1418-874 1811-1397 392-523 675-1178 828-1941l110-481c65-457 436-698 1112-698 328 0 568 66 698 196 131 132 175 306 153 524l-130 654c-153 850-436 1571-850 2161-415 588-1026 1156-1855 1701 677 720 1113 1462 1309 2225 195 764 195 1746-22 2968l-88 414c-65 436-436 655-1112 655-633 0-917-219-852-655l44-261c196-982 219-1790 65-2421-153-633-523-1266-1112-1877l-1026 589c-284 154-458 350-523 589l-655 3426c-109 458-479 677-1113 677l-65-88zM128986 36354c-109 458-480 699-1113 699-348 0-588-65-719-196s-175-306-131-503l305-1526h-5803l-305 1526c-109 458-480 699-1113 699-349 0-589-65-719-196-131-131-175-306-131-503l458-2378c66-261 174-479 350-633 174-153 370-240 610-240h218c677-1222 1157-2596 1441-4101l239-1222c263-1331 808-2358 1637-3077 828-720 1899-1091 3186-1091h2137c240 0 415 66 524 218 109 153 153 350 109 590l-1681 8682h394c240 0 414 65 523 218 110 154 131 350 66 612l-480 2421zm-1003-11039h-1113c-545 0-1026 196-1440 567-415 371-698 894-829 1550l-349 1811c-240 1287-698 2574-1375 3882h3600l1506-7809zM133152 24049c65-459 436-677 1113-677 326 0 567 66 698 174 131 110 175 284 153 503l-720 3642c677-588 1507-872 2465-872 1027 0 1855 349 2466 1048 610 698 807 1613 567 2770l-109 545c-239 1199-807 2137-1723 2814s-1920 1026-3033 1026c-1112 0-1985-349-2618-1026s-829-1615-589-2814l1331-7134zm589 7046c-131 698-44 1244 263 1637 304 392 763 588 1352 588s1113-196 1571-588c458-393 764-939 894-1637l66-349c130-698 44-1243-263-1637-305-392-764-588-1352-588-590 0-1113 196-1571 588-458 394-764 939-894 1637l-66 349zm9011-7025c65-458 435-698 1112-698 328 0 568 66 698 196 132 131 175 305 154 523l-1986 10189c-108 458-480 677-1112 677-350 0-590-65-720-196-130-130-175-306-130-503l1985-10188zM152765 34303c-109 459-480 677-1112 677-349 0-589-65-720-195-130-131-175-306-130-503l1571-8095-4670 3950-808 4145c-108 458-479 677-1112 677-349 0-589-65-720-196-130-130-174-306-130-503l1985-10188c66-458 436-698 1113-698 328 0 567 66 699 196 130 131 174 305 151 523l-719 3688 4299-3688c544-457 1047-698 1505-698 589 0 850 241 785 698l-1986 10211zm-1592-12152c-720 0-1308-261-1745-763-438-503-568-1178-415-2030 65-370 349-567 852-567 284 0 479 44 567 130 88 88 131 219 109 371-153 959 153 1440 917 1440s1243-480 1440-1440c109-349 393-524 873-524 284 0 480 44 568 131 86 88 130 218 109 414-153 852-546 1527-1179 2030-632 502-1308 742-2027 742l-66 65zM168297 36354c-109 458-480 699-1112 699-349 0-589-65-722-196-130-131-174-306-130-503l305-1526h-5803l-305 1526c-109 458-480 699-1113 699-349 0-589-65-719-196-131-131-175-306-131-503l458-2378c66-261 174-479 350-633 174-153 370-240 610-240h218c677-1222 1157-2596 1441-4101l239-1222c263-1331 808-2358 1637-3077 828-720 1899-1091 3184-1091h2139c240 0 415 66 524 218 109 153 153 350 109 590l-1681 8682h394c240 0 414 65 523 218 110 154 131 350 66 612l-480 2421zm-1003-11039h-1113c-545 0-1026 196-1440 567-415 371-698 894-829 1550l-349 1811c-240 1287-698 2574-1375 3882h3600l1506-7809zM178638 31599c-198 959-720 1766-1593 2443s-1875 1004-3010 1004c-1287 0-2181-371-2705-1134-524-764-677-1768-436-3012l720-3708c240-1199 807-2160 1701-2858 895-698 1920-1048 3077-1048 1156 0 2050 328 2662 1003 610 677 829 1507 633 2488-305 1593-1440 2596-3403 3033l-2400 545c-589 131-917 328-982 590l-88 414c-109 610-21 1091 283 1440 306 349 743 523 1311 523 588 0 1112-174 1548-523s698-785 785-1287l44-153c65-414 436-633 1091-633 349 0 589 65 720 196 130 130 175 305 130 523l-86 154zm-4211-6066c-458 349-742 850-873 1527l-393 1986c131-110 371-219 698-306l2313-545c830-218 1311-720 1463-1505 88-459-22-852-329-1178-304-328-762-503-1352-503-567 0-1069 175-1527 524zM187866 24092c65-457 436-698 1112-698 349 0 589 66 720 196 131 132 175 306 153 524l-1985 10188c-110 459-480 677-1112 677-350 0-590-65-720-195-131-131-175-306-131-503l894-4581h-3796l-895 4581c-108 458-479 677-1112 677-349 0-589-65-720-196-131-130-175-306-131-503l1986-10188c65-458 436-698 1113-698 326 0 567 66 698 196 131 131 174 305 153 523l-764 3906h3797l742-3906zM192533 24049c65-459 435-677 1113-677 326 0 567 66 698 174 131 110 175 284 153 503l-720 3642c677-588 1506-872 2465-872 1026 0 1855 349 2466 1048 610 698 807 1613 567 2770l-109 545c-240 1199-808 2137-1723 2814-917 677-1921 1026-3033 1026-1113 0-1985-349-2618-1026s-829-1615-589-2814l1331-7134zm589 7046c-131 698-44 1244 263 1637 304 392 762 588 1352 588 588 0 1113-196 1571-588 458-393 763-939 894-1637l65-349c131-698 44-1243-261-1637-306-392-764-588-1352-588-590 0-1113 196-1571 588-459 394-764 939-894 1637l-66 349zM202568 34085c-65 306-195 546-414 743-218 195-502 283-850 283-328 0-568-88-720-283-153-196-195-459-131-787l131-632c65-329 219-590 436-787 218-196 503-283 829-283 349 0 612 86 763 283 153 196 196 436 131 742l-175 720zm-1222-3643l1658-9818 110-524c109-502 524-764 1243-764 371 0 633 66 785 198 153 130 196 326 153 567l-109 524-2139 9818c-108 458-436 677-982 677-589 0-829-219-720-677z"/></g></g></svg>