<?xml version="1.0" encoding="UTF-8"?>
<!DOCTYPE svg PUBLIC "-//W3C//DTD SVG 1.1//EN" "http://www.w3.org/Graphics/SVG/1.1/DTD/svg11.dtd">
<!-- Creator: CorelDRAW X6 -->
<svg xmlns="http://www.w3.org/2000/svg" xml:space="preserve" width="145px" height="145px" version="1.1" style="shape-rendering:geometricPrecision; text-rendering:geometricPrecision; image-rendering:optimizeQuality; fill-rule:evenodd; clip-rule:evenodd"
viewBox="0 0 9610 9610"
 xmlns:xlink="http://www.w3.org/1999/xlink">
 <defs>
  <style type="text/css">
   <![CDATA[
    .fil0 {fill:#ffffff}
   ]]>
  </style>
 </defs>
 <g id="Layer_x0020_1">
  <metadata id="CorelCorpID_0Corel-Layer"/>
  <path class="fil0" d="M6353 8029c0,-280 -74,-555 -215,-796 -77,-132 -173,-252 -284,-356l987 -987 68 68c145,145 314,259 503,339 195,83 403,124 616,124 213,0 421,-42 616,-124 188,-80 358,-194 503,-339 145,-145 259,-314 339,-503 83,-195 124,-402 124,-616 0,-213 -42,-421 -124,-616 -80,-188 -194,-357 -339,-503 -145,-145 -314,-259 -503,-339 -195,-83 -402,-124 -616,-124 -280,0 -555,74 -796,215 -132,77 -252,173 -357,284l-987 -988 68 -68c145,-145 259,-314 339,-503 83,-195 125,-403 125,-616 0,-213 -42,-421 -124,-616 -80,-188 -194,-357 -339,-503 -145,-145 -314,-259 -503,-339 -195,-83 -402,-124 -616,-124 -213,0 -421,42 -616,124 -188,80 -357,194 -503,339 -145,145 -259,314 -339,503 -82,195 -124,402 -124,616 0,280 74,555 215,796 77,132 173,252 284,356l-987 988 -68 -68 0 0c-145,-145 -314,-259 -503,-339 -195,-83 -403,-125 -616,-124 -213,0 -421,42 -616,124 -188,80 -357,194 -503,339 -145,145 -259,314 -339,503 -83,195 -124,402 -124,616 0,213 42,421 124,616 80,188 194,357 339,503 145,145 314,259 503,339 195,83 402,124 616,124 280,0 555,-74 796,-215 132,-77 252,-173 357,-284l987 987 -68 68c-145,145 -259,314 -339,503 -83,195 -125,403 -125,616 0,213 42,421 124,616 80,188 194,357 339,503 145,145 314,259 503,339 195,83 402,124 616,124 213,0 421,-42 616,-124 188,-80 357,-194 503,-339 145,-145 259,-314 339,-503 83,-195 124,-402 124,-616zm1676 -4217l0 0c455,0 842,297 976,708 64,195 -35,408 -227,482 -200,78 -435,73 -656,-39 -68,-34 -127,-84 -179,-139 -9,-10 -16,-17 -16,-17l-659 -659c193,-211 469,-337 760,-337zm-2210 -1915l0 0c-47,157 -138,297 -254,412l0 0 -2105 2105 -300 -300 2033 -2033c281,-267 432,-642 414,-1029 -3,-58 -9,-116 -19,-172 238,253 349,626 231,1017zm-1012 -214l0 0 -659 659c-211,-193 -336,-469 -336,-760 0,-274 107,-532 301,-726 117,-117 258,-203 411,-252 194,-62 404,38 478,228 78,201 73,436 -39,656 -34,68 -84,127 -139,179 -10,9 -17,16 -17,16zm-3225 4116l0 0c-455,0 -842,-297 -976,-708 -64,-195 35,-408 227,-482 184,-71 396,-73 600,13 95,40 177,104 248,179 2,2 3,3 3,3l659 659c-193,211 -469,337 -760,337zm2532 652l0 0 -2033 -2033c-267,-281 -642,-432 -1029,-414 -59,3 -116,9 -173,19 268,-252 647,-345 1024,-230 155,47 292,138 406,253l0 0 2105 2105 -300 300zm-262 -1645l0 0 953 -953 953 953 -953 953 -953 -953zm1345 -1345l0 0 300 -300 2033 2033c267,281 642,432 1029,414 58,-3 116,-9 172,-19 -263,247 -656,358 -1065,216 -139,-48 -262,-133 -365,-239l0 0 -2105 -2105zm-1405 4250l0 0c47,-155 138,-293 253,-407l0 0 2105 -2105 300 300 -2033 2033c-266,253 -415,601 -415,966 0,21 0,42 1,62 3,59 9,116 20,173 -252,-267 -344,-647 -231,-1023zm1298 1296l0 0c-195,64 -408,-35 -482,-227 -71,-184 -73,-397 14,-601 40,-94 104,-177 178,-247l3 -3 659 -659c211,193 336,469 336,760 0,455 -297,842 -708,976z"/>
 </g>
</svg>
