<?xml version="1.0" encoding="UTF-8"?>
<!DOCTYPE svg PUBLIC "-//W3C//DTD SVG 1.1//EN" "http://www.w3.org/Graphics/SVG/1.1/DTD/svg11.dtd">
<!-- Creator: CorelDRAW X6 -->
<svg xmlns="http://www.w3.org/2000/svg" xml:space="preserve" width="810px" height="261px" version="1.1" style="shape-rendering:geometricPrecision; text-rendering:geometricPrecision; image-rendering:optimizeQuality; fill-rule:evenodd; clip-rule:evenodd"
viewBox="0 0 330511 106356"
 xmlns:xlink="http://www.w3.org/1999/xlink">
 <defs>
  <style type="text/css">
   <![CDATA[
    .fil4 {fill:#686664;fill-rule:nonzero}
    .fil3 {fill:url(#id0);fill-rule:nonzero}
    .fil1 {fill:url(#id1);fill-rule:nonzero}
    .fil2 {fill:url(#id2);fill-rule:nonzero}
    .fil0 {fill:url(#id3);fill-rule:nonzero}
   ]]>
  </style>
  <linearGradient id="id0" gradientUnits="userSpaceOnUse" x1="52899.3" y1="50091.1" x2="106643" y2="50872.2">
   <stop offset="0" style="stop-color:#473066"/>
   <stop offset="0" style="stop-color:#473066"/>
   <stop offset="0.988235" style="stop-color:#0097DB"/>
   <stop offset="1" style="stop-color:#0097DB"/>
  </linearGradient>
  <linearGradient id="id1" gradientUnits="userSpaceOnUse" x1="51532.8" y1="59719.7" x2="1636.03" y2="52028.5">
   <stop offset="0" style="stop-color:#F39313"/>
   <stop offset="0" style="stop-color:#F39313"/>
   <stop offset="0.988235" style="stop-color:#FFDD00"/>
   <stop offset="1" style="stop-color:#FFDD00"/>
  </linearGradient>
  <linearGradient id="id2" gradientUnits="userSpaceOnUse" x1="61842.3" y1="59416.9" x2="49943.1" y2="100126">
   <stop offset="0" style="stop-color:#3CB7AB"/>
   <stop offset="0.0117647" style="stop-color:#3CB7AB"/>
   <stop offset="0.988235" style="stop-color:#96C22B"/>
   <stop offset="1" style="stop-color:#96C22B"/>
  </linearGradient>
  <linearGradient id="id3" gradientUnits="userSpaceOnUse" x1="46673.4" y1="42053.7" x2="54252.8" y2="11115.2">
   <stop offset="0" style="stop-color:#D62243"/>
   <stop offset="1" style="stop-color:#E94892"/>
  </linearGradient>
 </defs>
 <g id="Слой_x0020_1">
  <metadata id="CorelCorpID_0Corel-Layer"/>
  <path class="fil0" d="M60451 34967l4337 -4337 0 0 751 -751c1607,-1606 2869,-3477 3752,-5562 914,-2161 1378,-4453 1378,-6816 0,-2361 -463,-4654 -1377,-6813 -881,-2084 -2143,-3956 -3749,-5561 -1607,-1607 -3477,-2868 -5562,-3749 -2159,-913 -4451,-1377 -6812,-1377 -2362,0 -4654,463 -6813,1376 -2084,881 -3956,2143 -5562,3749 -1606,1606 -2868,3477 -3749,5562 -913,2159 -1377,4451 -1377,6813 0,3098 821,6143 2375,8807 852,1461 1914,2790 3141,3944l-8671 8671 -435 435 -1821 1821 0 0 4337 4337 1875 -1875 20622 -20622c3109,-2953 4777,-7100 4576,-11382 -30,-644 -103,-1282 -214,-1908 2628,2800 3859,6926 2561,11255 -520,1733 -1529,3282 -2812,4558l-1 1 -21035 21035 -2256 2256 4337 4337 10548 -10548 0 0 4338 -4338 3317 -3317 0 0zm-7452 -16521l0 0c-109,103 -184,174 -184,174l-7289 7289c-2337,-2135 -3724,-5191 -3724,-8409 0,-3036 1183,-5890 3329,-8037 1297,-1297 2853,-2242 4551,-2787 2146,-689 4470,424 5284,2526 861,2219 810,4821 -432,7264 -380,748 -925,1403 -1536,1979z"/>
  <path class="fil1" d="M34967 45887l-4337 -4337 -751 -751c-1606,-1607 -3477,-2869 -5562,-3752 -2160,-915 -4453,-1378 -6816,-1378 -2361,0 -4654,463 -6813,1377 -2084,881 -3955,2143 -5561,3749 -1607,1606 -2868,3477 -3749,5562 -913,2159 -1377,4451 -1377,6812 0,2361 463,4654 1376,6813 882,2084 2143,3955 3749,5562 1606,1606 3477,2868 5561,3749 2160,914 4451,1377 6813,1377 3098,0 6143,-822 8807,-2375 1461,-852 2790,-1914 3944,-3141l8671 8671 435 435 1821 1821 4337 -4337 -1875 -1875 -20622 -20622c-2953,-3109 -7100,-4777 -11381,-4576 -645,30 -1282,102 -1908,214 2800,-2628 6926,-3859 11255,-2561 1733,520 3282,1529 4558,2812l1 1 21034 21035 2256 2256 4337 -4338 -10547 -10547 -4338 -4338 -3317 -3317 0 0zm-16521 7452l0 0c103,109 174,184 174,184l7289 7289c-2135,2337 -5191,3723 -8409,3723 -3036,0 -5890,-1182 -8037,-3329 -1297,-1298 -2242,-2853 -2787,-4551 -689,-2147 424,-4470 2526,-5285 2219,-860 4821,-810 7264,433 748,380 1403,925 1979,1536z"/>
  <path class="fil2" d="M45905 71389l-4337 4337 0 0 -751 751c-1607,1606 -2869,3477 -3752,5562 -914,2161 -1378,4453 -1378,6816 0,2361 463,4654 1376,6813 881,2084 2143,3956 3749,5562 1607,1606 3477,2868 5562,3749 2160,913 4452,1377 6813,1377 2361,0 4654,-463 6813,-1376 2084,-881 3956,-2143 5562,-3749 1607,-1606 2868,-3477 3749,-5561 913,-2160 1377,-4452 1377,-6813 0,-3098 -821,-6143 -2375,-8807 -852,-1461 -1913,-2790 -3140,-3944l8670 -8671 435 -435 1821 -1821 0 0 -4337 -4337 -1875 1875 -20622 20622c-3109,2953 -4777,7100 -4576,11382 30,644 102,1282 214,1908 -2628,-2800 -3858,-6926 -2560,-11255 520,-1733 1529,-3282 2811,-4558l1 -1 21035 -21035 2256 -2256 -4337 -4337 -10548 10548 -4337 4337 0 0 -3317 3317zm7452 16521l0 0c109,-103 185,-174 185,-174l7289 -7289c2337,2135 3723,5191 3723,8409 0,3036 -1182,5890 -3329,8037 -1298,1297 -2854,2242 -4551,2787 -2147,689 -4470,-424 -5285,-2526 -860,-2219 -810,-4821 433,-7264 380,-748 925,-1403 1535,-1979z"/>
  <path class="fil3" d="M71389 60469l4337 4337 0 0 751 751c1606,1607 3477,2869 5562,3752 2161,915 4454,1378 6816,1378 2361,0 4654,-463 6813,-1377 2084,-881 3956,-2143 5562,-3749 1606,-1606 2868,-3477 3749,-5561 914,-2160 1377,-4452 1377,-6813 0,-2361 -463,-4654 -1376,-6813 -881,-2084 -2143,-3955 -3749,-5561 -1606,-1607 -3477,-2868 -5561,-3749 -2160,-914 -4452,-1377 -6813,-1377 -3098,0 -6143,821 -8806,2374 -1462,852 -2791,1914 -3945,3141l-8671 -8670 -435 -435 -1821 -1821 0 0 -4337 4337 1875 1875 20622 20622c2953,3109 7100,4777 11382,4576 644,-30 1282,-102 1908,-214 -2800,2628 -6926,3859 -11255,2561 -1733,-520 -3282,-1529 -4558,-2811l-1 -1 -21035 -21035 -2256 -2256 -4337 4338 10548 10548 4337 4337 0 0 3317 3317zm16521 -7452l0 0c-103,-109 -174,-184 -174,-184l-7289 -7289c2134,-2337 5190,-3723 8408,-3723 3036,0 5890,1182 8037,3329 1298,1298 2243,2853 2787,4551 688,2147 -425,4470 -2527,5285 -2219,860 -4821,810 -7264,-433 -748,-380 -1403,-925 -1979,-1536z"/>
  <g id="_1499881952">
   <path class="fil4" d="M149511 44551c626,0 895,267 895,895l0 5326c0,895 -537,1344 -1745,1344 -1209,0 -1746,-449 -1746,-1344l0 -2819 -14234 0c-2640,0 -4430,-1433 -4430,-4789l0 -24037c0,-1656 939,-3044 3804,-3044 1253,0 2238,268 2954,850 -312,-134 -671,-179 -1029,-179 -1611,0 -2239,850 -2239,1702l0 24528c0,1163 448,1566 1567,1566l9266 0 0 -25424c0,-1656 940,-3044 3804,-3044 1253,0 2238,268 2954,850 -312,-134 -671,-179 -1029,-179 -1611,0 -2239,850 -2239,1702l0 26095 3447 0zm-16247 -628l0 0c-627,0 -895,-268 -895,-895l0 -24304c0,-895 537,-1342 1745,-1342 1208,0 1745,446 1745,1342l0 22783 6088 0 0 2416 -8683 0zm13428 -25199l0 0c0,-895 537,-1342 1745,-1342 1208,0 1745,446 1745,1342l0 22783c2552,0 4342,1432 4342,4789l0 4072c0,1657 -941,3044 -3805,3044 -1253,0 -2237,-267 -2953,-850 312,134 671,179 1028,179 1611,0 2238,-850 2238,-1700l0 -5550c0,-1165 -447,-1568 -1567,-1568l-2774 0 0 -25199z"/>
   <path class="fil4" d="M158102 21589c0,-1521 449,-2595 1523,-3490 1029,-852 2909,-1477 4385,-1656 -1477,582 -2416,2193 -2416,4700l0 10339 11771 0c805,0 1387,492 1387,1700 0,1210 -582,1702 -1387,1702l-11771 0 0 8102c0,1163 446,1566 1566,1566l11548 0c805,0 1388,492 1388,1700 0,1210 -582,1702 -1388,1702l-12175 0c-2641,0 -4432,-1433 -4432,-4789l0 -21575zm9176 -1745l0 0c-1120,0 -1566,404 -1566,1567l0 7028 7474 0c1745,0 2865,761 2865,3222 0,1299 -312,2103 -895,2595 134,-313 224,-716 224,-1163 0,-1523 -851,-2239 -1969,-2239l-11191 0 0 -9623c0,-3356 1791,-4789 4432,-4789l7833 0c805,0 1387,492 1387,1700 0,1210 -582,1702 -1387,1702l-7207 0zm-1566 15665l0 0 0 5999 8817 0c1746,0 2865,761 2865,3222 0,1299 -314,2103 -895,2595 135,-313 223,-716 223,-1163 0,-1523 -850,-2239 -1970,-2239l-11637 0c-626,0 -895,-268 -895,-895l0 -7520 3492 0zm626 -12621l0 0 0 -1523c0,-626 270,-895 895,-895l7296 0c1119,0 1970,-716 1970,-2237 0,-449 -90,-850 -223,-1165 581,494 895,1299 895,2597 0,2462 -1120,3223 -2865,3223l-7968 0z"/>
   <path class="fil4" d="M197536 45670c0,895 -537,1342 -1746,1342 -1209,0 -1746,-446 -1746,-1342l0 -10475 -10472 0 0 10475c0,895 -537,1342 -1746,1342 -1209,0 -1746,-446 -1746,-1342l0 -26543c0,-1656 940,-3044 3805,-3044 1253,0 2238,268 2954,850 -314,-134 -672,-179 -1030,-179 -1611,0 -2237,850 -2237,1702l0 13786 13965 0 0 13428zm-9847 -403l0 0c0,1657 -941,3044 -3805,3044 -1253,0 -2238,-270 -2954,-850 314,134 672,179 1030,179 1611,0 2237,-852 2237,-1702l0 -10115 3492 0 0 9444zm13965 0l0 0c0,1657 -940,3044 -3805,3044 -1253,0 -2238,-270 -2954,-850 314,134 672,179 1030,179 1611,0 2237,-852 2237,-1702l0 -14323 -13965 0 0 -12891c0,-895 537,-1342 1746,-1342 1209,0 1746,446 1746,1342l0 10026 10472 0 0 -10026c0,-895 537,-1342 1746,-1342 1209,0 1746,446 1746,1342l0 26543zm-7610 -26140l0 0c0,-1656 941,-3044 3805,-3044 1254,0 2238,268 2954,850 -314,-134 -672,-179 -1030,-179 -1611,0 -2237,850 -2237,1702l0 9668 -3492 0 0 -8997z"/>
   <path class="fil4" d="M213156 22887l-4744 0c-1746,0 -2865,-761 -2865,-3223 0,-1299 314,-2103 895,-2597 -135,315 -223,716 -223,1165 0,1521 850,2237 1970,2237l8459 0 0 25201c0,895 -537,1342 -1746,1342 -1208,0 -1745,-446 -1745,-1342l0 -22783zm7609 22380l0 0c0,1657 -939,3044 -3804,3044 -1253,0 -2239,-270 -2955,-850 314,134 672,179 1030,179 1611,0 2238,-852 2238,-1702l0 -26095 -9042 0c-805,0 -1388,-491 -1388,-1702 0,-1208 582,-1700 1388,-1700l17277 0c1745,0 2865,761 2865,3222 0,1208 -269,2015 -761,2507 45,-134 91,-358 91,-537 0,-1253 -672,-1791 -1746,-1791l-5192 0 0 25424zm5103 -24798l0 0c761,0 1208,358 1208,1210 0,850 -446,1208 -1208,1208l-4476 0 0 -2418 4476 0z"/>
   <path class="fil4" d="M232268 21589c0,-1521 446,-2595 1521,-3490 1030,-852 2910,-1477 4387,-1656 -1477,582 -2418,2193 -2418,4700l0 12891 4476 0c3089,0 5192,-2148 5192,-6624l0 -449c0,-2685 -1298,-4072 -3714,-4072l-1208 0 0 -1208c0,-895 313,-1210 1208,-1210l716 0c3984,0 6491,2015 6491,7878 0,4655 -3044,9131 -8729,9131l-4432 0 0 8192c0,895 -537,1342 -1745,1342 -1208,0 -1745,-446 -1745,-1342l0 -24081zm4118 16517l0 0 3490 0 0 7162c0,1657 -939,3044 -3804,3044 -1253,0 -2238,-270 -2954,-850 312,134 671,179 1029,179 1611,0 2239,-852 2239,-1702l0 -7833zm0 -16875l0 0c0,-3356 1790,-4789 4431,-4789l1701 0c6266,0 10519,3581 10519,10518 0,6088 -3313,9847 -9131,10430 3044,-1165 5639,-4431 5639,-9042 0,-6266 -2774,-8504 -7116,-8504l-537 0c-1566,0 -2015,447 -2015,1970l0 9220 1836 0c1163,0 2148,-313 2819,-1118 -582,2149 -2014,3490 -4297,3490l-3848 0 0 -12175z"/>
   <path class="fil4" d="M137426 85095c3133,0 5236,-1387 5236,-6846l0 -2955c-984,1432 -3267,2461 -5684,2461 -5237,0 -8727,-3893 -8727,-10339l0 -8281c0,-1654 939,-3044 3804,-3044 1253,0 2238,270 2954,852 -312,-136 -671,-179 -1029,-179 -1611,0 -2239,850 -2239,1700l0 9131c0,4476 2418,6758 5462,6758 3044,0 5460,-2283 5460,-6758l0 -8460c0,-1654 940,-3044 3805,-3044 1253,0 2238,270 2954,852 -314,-136 -672,-179 -1030,-179 -1611,0 -2237,850 -2237,1700l0 19873c0,6625 -2507,10160 -8819,10160 -2596,0 -5505,-984 -6982,-2729 -269,-315 -447,-673 -447,-1031 0,-401 223,-850 716,-1342 447,-448 939,-671 1388,-671 268,0 537,134 895,446 1432,1344 2909,1924 4520,1924zm-5415 -2998l0 0c-672,0 -1209,224 -1746,761 -223,224 -403,492 -537,716 44,-716 269,-1387 805,-2015 850,-984 1701,-1432 2552,-1432 625,0 1298,270 1879,716 1030,807 2283,1208 3760,1208 1344,0 2462,-492 3134,-1341 -627,3490 -2776,3760 -4432,3760 -1476,0 -2686,-449 -4028,-1702 -448,-401 -895,-671 -1387,-671zm7250 -10788l0 0c-2462,0 -3402,-1521 -3402,-3848l0 -8727c0,-895 -537,-1344 -1745,-1344 -1208,0 -1745,448 -1745,1344l0 8727c0,4163 2192,6266 4834,6266 1790,0 3446,-895 4297,-3089 -493,403 -1254,671 -2239,671zm3000 16875l0 0c2999,-1521 4520,-4342 4520,-9893l0 -19558c0,-895 537,-1344 1746,-1344 1209,0 1746,448 1746,1344l0 19470c0,4968 -2821,8907 -8012,9981z"/>
   <path class="fil4" d="M155195 61598c0,-1523 446,-2597 1521,-3492 1030,-850 2910,-1477 4387,-1657 -1477,582 -2418,2194 -2418,4700l0 24528c0,895 -537,1344 -1745,1344 -1208,0 -1745,-448 -1745,-1344l0 -24080zm7608 23676l0 0c0,1656 -939,3044 -3804,3044 -1253,0 -2238,-268 -2954,-850 313,134 671,179 1029,179 1611,0 2239,-850 2239,-1700l0 -24707c0,-3358 1790,-4791 4431,-4791l8952 0c2640,0 4431,1433 4431,4791l0 24035c0,1656 -939,3044 -3804,3044 -1253,0 -2238,-268 -2954,-850 313,134 671,179 1029,179 1611,0 2239,-850 2239,-1700l0 -24528c0,-1165 -449,-1569 -1567,-1569l-7699 0c-1118,0 -1567,404 -1567,1569l0 23855zm628 -22380l0 0 0 -1521c0,-628 268,-895 895,-895l7787 0c628,0 895,268 895,895l0 24304c0,895 -537,1344 -1745,1344 -1208,0 -1745,-448 -1745,-1344l0 -22783 -6088 0z"/>
   <path class="fil4" d="M181153 66117c0,-5684 4163,-9310 9355,-10115 -3223,1163 -5863,4476 -5863,9981l0 9086 15040 0 0 10608c0,895 -538,1344 -1746,1344 -1209,0 -1746,-448 -1746,-1344l0 -7653 -11547 0 0 7653c0,895 -537,1344 -1746,1344 -1209,0 -1746,-448 -1746,-1344l0 -19561zm7610 19157l0 0c0,1656 -940,3044 -3805,3044 -1253,0 -2238,-268 -2954,-850 314,134 672,179 1030,179 1611,0 2237,-850 2237,-1700l0 -7297 3492 0 0 6625zm-3492 -19157l0 0c0,-5996 3134,-10205 9266,-10205 6132,0 9266,4208 9266,10205l0 19157c0,1656 -941,3044 -3805,3044 -1253,0 -2238,-268 -2954,-850 314,134 672,179 1030,179 1611,0 2237,-850 2237,-1700l0 -11503 -15039 0 0 -8327zm15039 404l0 0c0,-5460 -2686,-7207 -5774,-7207 -3088,0 -5774,1747 -5774,7207l0 5058 11547 0 0 -5058zm-4118 4431l0 0 3492 0 0 -4476c0,-4431 -2104,-6534 -5148,-6534 -2596,0 -4118,1433 -4699,3490 671,-671 1700,-1117 2865,-1117 2327,0 3490,1475 3490,4207l0 4431z"/>
   <path class="fil4" d="M220407 59135c0,-1654 939,-3044 3804,-3044 1253,0 2239,270 2955,852 -314,-136 -672,-179 -1030,-179 -1611,0 -2238,850 -2238,1700l0 1745c0,4208 -1701,7656 -6087,10296l-6535 3939c-582,312 -851,582 -851,1387l0 9847c0,895 -537,1344 -1745,1344 -1208,0 -1745,-448 -1745,-1344l0 -26543c0,-1654 939,-3044 3804,-3044 1253,0 2238,270 2954,852 -313,-136 -671,-179 -1029,-179 -1611,0 -2239,850 -2239,1700l0 12936c135,-224 403,-448 716,-628l4432 -2506c3670,-2103 4834,-4789 4834,-8279l0 -852zm4118 -401l0 0c0,-895 537,-1344 1746,-1344 1208,0 1745,448 1745,1344l0 1163c0,4342 -1299,8011 -4565,11055 3537,3268 5461,7476 5461,13294l0 1029c0,1656 -940,3044 -3805,3044 -1254,0 -2237,-268 -2953,-850 313,134 671,179 1029,179 1611,0 2238,-850 2238,-1700l0 -1611c0,-4925 -1388,-8281 -4520,-11370l-5506 3492c-537,313 -806,671 -851,984l0 7833c0,1656 -939,3044 -3804,3044 -1253,0 -2238,-268 -2954,-850 313,134 671,179 1029,179 1611,0 2239,-850 2239,-1700l0 -9983c0,-491 88,-671 492,-938l6579 -4029c4567,-2774 6401,-6176 6401,-10742l0 -1521zm-9982 9489l0 0 -3490 1970 0 -11458c0,-895 537,-1344 1745,-1344 1208,0 1745,448 1745,1344l0 9489zm10251 17455l0 0c0,895 -537,1344 -1745,1344 -1209,0 -1746,-448 -1746,-1344l0 -1341c0,-3672 -1074,-6582 -3357,-8819l2776 -1702c2595,2328 4072,5866 4072,10521l0 1341z"/>
   <path class="fil4" d="M231372 66117c0,-5684 4162,-9310 9354,-10115 -3222,1163 -5864,4476 -5864,9981l0 11907c0,5460 2685,7205 5775,7205 3089,0 5775,-1745 5775,-7205l0 -11370c0,-2731 -1165,-4207 -3492,-4207 -1163,0 -2193,446 -2865,1117 582,-2057 2104,-3490 4700,-3490 3044,0 5147,2103 5147,6534l0 11816c0,5999 -3132,10205 -9265,10205 -6133,0 -9265,-4206 -9265,-10205l0 -12175zm22647 12175l0 0c0,5686 -4162,9310 -9354,10117 3223,-1165 5864,-4476 5864,-9981l0 -11907c0,-5460 -2686,-7207 -5775,-7207 -3089,0 -5775,1747 -5775,7207l0 11370c0,2729 1165,4207 3492,4207 1163,0 2192,-446 2865,-1120 -582,2060 -2104,3492 -4700,3492 -3044,0 -5147,-2103 -5147,-6536l0 -11817c0,-5996 3132,-10205 9265,-10205 6133,0 9265,4208 9265,10205l0 12175z"/>
   <path class="fil4" d="M257152 61598c0,-1523 448,-2597 1523,-3492 1029,-850 2909,-1477 4385,-1657 -1476,582 -2416,2194 -2416,4700l0 10339 5774 0c2954,0 4834,-1790 4834,-4519 0,-3134 -1253,-4074 -3402,-4074l-2462 0 0 -1521c0,-628 270,-895 895,-895l2327 0c3492,0 5999,2282 5999,6042 0,2865 -1165,4967 -3760,6312 3446,1299 4431,3848 4431,7071 0,4075 -2998,8057 -9400,8057l-4297 0c-2641,0 -4432,-1432 -4432,-4789l0 -21573zm3492 21394l0 0c0,1165 446,1566 1566,1566l3938 0c3626,0 5775,-1833 5775,-5056 0,-2821 -1567,-4612 -4432,-4612l-6847 0 0 8102zm5057 -26543l0 0c-2641,0 -4432,1433 -4432,4791l0 9623 5237 0c2327,0 3849,-1344 4163,-3313 -582,673 -1209,895 -2193,895l-3715 0 0 -7025c0,-1165 446,-1569 1566,-1569l2193 0c3760,0 6713,2327 6713,6670 0,2910 -1118,4879 -3222,6221 2865,1432 3895,3850 3895,7161 0,4208 -2686,7028 -5998,8057 5461,0 9355,-3982 9355,-9086 0,-3490 -1611,-5996 -4252,-7340 2327,-1433 3581,-3715 3581,-6579 0,-4746 -3537,-8506 -9221,-8506l-3670 0zm-3536 27484l0 0c-626,0 -895,-270 -895,-895l0 -7520 3492 0 0 5997 4476 0c716,0 1476,-222 2014,-671 -716,2060 -2506,3089 -4969,3089l-4118 0z"/>
   <path class="fil4" d="M294749 59135c0,-1654 939,-3044 3804,-3044 1253,0 2239,270 2955,852 -313,-136 -672,-179 -1030,-179 -1611,0 -2238,850 -2238,1700l0 1745c0,4208 -1701,7656 -6088,10296l-6535 3939c-581,312 -851,582 -851,1387l0 9847c0,895 -537,1344 -1745,1344 -1208,0 -1745,-448 -1745,-1344l0 -26543c0,-1654 939,-3044 3804,-3044 1254,0 2238,270 2954,852 -312,-136 -671,-179 -1029,-179 -1611,0 -2239,850 -2239,1700l0 12936c135,-224 404,-448 717,-628l4432 -2506c3670,-2103 4834,-4789 4834,-8279l0 -852zm4118 -401l0 0c0,-895 537,-1344 1746,-1344 1208,0 1745,448 1745,1344l0 1163c0,4342 -1299,8011 -4565,11055 3536,3268 5461,7476 5461,13294l0 1029c0,1656 -941,3044 -3805,3044 -1253,0 -2237,-268 -2953,-850 312,134 671,179 1029,179 1611,0 2238,-850 2238,-1700l0 -1611c0,-4925 -1388,-8281 -4520,-11370l-5506 3492c-537,313 -805,671 -851,984l0 7833c0,1656 -940,3044 -3804,3044 -1253,0 -2238,-268 -2954,-850 312,134 671,179 1029,179 1611,0 2239,-850 2239,-1700l0 -9983c0,-491 89,-671 492,-938l6579 -4029c4567,-2774 6401,-6176 6401,-10742l0 -1521zm-9982 9489l0 0 -3490 1970 0 -11458c0,-895 537,-1344 1745,-1344 1208,0 1745,448 1745,1344l0 9489zm10251 17455l0 0c0,895 -538,1344 -1745,1344 -1209,0 -1746,-448 -1746,-1344l0 -1341c0,-3672 -1074,-6582 -3357,-8819l2776 -1702c2595,2328 4073,5866 4073,10521l0 1341z"/>
   <path class="fil4" d="M311890 72966l14502 -13115 0 25827c0,895 -537,1344 -1745,1344 -1208,0 -1745,-448 -1745,-1344l0 -18396 -11012 10430 0 7966c0,895 -537,1344 -1745,1344 -1208,0 -1745,-448 -1745,-1344l0 -26543c0,-1654 939,-3044 3804,-3044 1253,0 2238,270 2954,852 -313,-136 -671,-179 -1029,-179 -1611,0 -2239,850 -2239,1700l0 14502zm628 4968l0 0 0 8013c0,850 -628,1700 -2239,1700 -358,0 -716,-45 -1029,-179 717,582 1701,850 2954,850 2865,0 3804,-1387 3804,-3044l0 -10652 -3490 3311zm0 -6221l0 0 13516 -12399c448,-446 986,-312 986,179l0 26454c0,850 -628,1700 -2239,1700 -358,0 -716,-45 -1029,-179 717,582 1701,850 2954,850 2865,0 3804,-1387 3804,-3044l0 -26140c0,-1654 -940,-3044 -3804,-3044 -1388,0 -2462,358 -3402,1210l-7296 6713 0 -5280c0,-895 -537,-1344 -1745,-1344 -1208,0 -1745,448 -1745,1344l0 12979z"/>
  </g>
 </g>
</svg>
