<?xml version="1.0" encoding="UTF-8"?>
<!DOCTYPE svg PUBLIC "-//W3C//DTD SVG 1.1//EN" "http://www.w3.org/Graphics/SVG/1.1/DTD/svg11.dtd">
<!-- Creator: CorelDRAW X6 -->
<svg xmlns="http://www.w3.org/2000/svg" xml:space="preserve" width="240px" height="326px" version="1.1" style="shape-rendering:geometricPrecision; text-rendering:geometricPrecision; image-rendering:optimizeQuality; fill-rule:evenodd; clip-rule:evenodd"
viewBox="0 0 113704 154423"
 xmlns:xlink="http://www.w3.org/1999/xlink">
 <defs>
  <style type="text/css">
   <![CDATA[
    .fil0 {fill:black}
   ]]>
  </style>
 </defs>
 <g id="Layer_x0020_1">
  <metadata id="CorelCorpID_0Corel-Layer"/>
  <path class="fil0" d="M56847 0c-31344,0 -56847,25503 -56847,56848 0,8180 1675,15989 4970,23211 14213,31097 41469,63939 49485,73262 595,701 1473,1102 2392,1102 926,0 1800,-401 2400,-1102 8010,-9322 35266,-42156 49479,-73262 3303,-7222 4978,-15031 4978,-23211 -8,-31344 -25511,-56847 -56857,-56848zm0 86378c-16281,0 -29531,-13249 -29531,-29531 0,-16282 13249,-29531 29531,-29531 16283,0 29533,13249 29533,29531 0,16281 -13249,29531 -29533,29531z"/>
 </g>
</svg>
