<?xml version="1.0" encoding="UTF-8"?>
<!DOCTYPE svg PUBLIC "-//W3C//DTD SVG 1.1//EN" "http://www.w3.org/Graphics/SVG/1.1/DTD/svg11.dtd">
<!-- Creator: CorelDRAW X6 -->
<svg xmlns="http://www.w3.org/2000/svg" xml:space="preserve" width="331px" height="331px" version="1.1" style="shape-rendering:geometricPrecision; text-rendering:geometricPrecision; image-rendering:optimizeQuality; fill-rule:evenodd; clip-rule:evenodd"
viewBox="0 0 75545 75545"
 xmlns:xlink="http://www.w3.org/1999/xlink">
 <defs>
  <style type="text/css">
   <![CDATA[
    .fil0 {fill:#5f5f5f}
   ]]>
  </style>
 </defs>
 <g id="Layer_x0020_1">
  <metadata id="CorelCorpID_0Corel-Layer"/>
  <path class="fil0" d="M37773 0c20861,0 37772,16911 37772,37772 0,20861 -16911,37773 -37772,37773 -20861,0 -37773,-16911 -37773,-37773 0,-20861 16911,-37772 37773,-37772zm16030 60122c-1121,1143 -2306,2201 -3364,3385 -1544,1734 -3491,2284 -5691,2158 -3216,-169 -6199,-1249 -9056,-2645 -6368,-3090 -11805,-7384 -16354,-12801 -3364,-3999 -6135,-8356 -7976,-13286 -889,-2391 -1523,-4825 -1333,-7405 127,-1587 720,-2941 1883,-4062 1269,-1207 2454,-2455 3702,-3682 1629,-1608 3660,-1587 5289,0 1016,995 1988,1989 2983,2984 973,973 1946,1925 2898,2898 1693,1714 1693,3702 0,5416 -1206,1227 -2411,2454 -3660,3639 -317,317 -359,571 -190,973 804,1946 1989,3682 3301,5289 2645,3258 5649,6157 9246,8399 761,487 1607,824 2411,1269 402,233 698,149 1016,-190 1206,-1248 2455,-2475 3682,-3702 1629,-1608 3660,-1608 5268,0 1990,1968 3957,3935 5925,5924 1692,1736 1692,3767 20,5438zm-18765 -32878l634 -4528c4379,614 8357,2602 11488,5733 2982,2983 4929,6728 5627,10853l-4506 783c-550,-3195 -2053,-6093 -4358,-8399 -2433,-2434 -5501,-3978 -8885,-4443zm25112 12059c-1016,-5924 -3808,-11298 -8061,-15571 -4484,-4486 -10176,-7320 -16460,-8208l635 -4528c7257,1015 13858,4295 19041,9500 4930,4930 8167,11170 9352,18026l-4507 782z"/>
 </g>
</svg>
