<?xml version="1.0" encoding="UTF-8"?>
<!DOCTYPE svg PUBLIC "-//W3C//DTD SVG 1.1//EN" "http://www.w3.org/Graphics/SVG/1.1/DTD/svg11.dtd">
<!-- Creator: CorelDRAW X6 -->
<svg xmlns="http://www.w3.org/2000/svg" xml:space="preserve" width="50px" height="43px" version="1.1" style="shape-rendering:geometricPrecision; text-rendering:geometricPrecision; image-rendering:optimizeQuality; fill-rule:evenodd; clip-rule:evenodd"
viewBox="0 0 12829 11023"
 xmlns:xlink="http://www.w3.org/1999/xlink">
 <defs>
  <style type="text/css">
   <![CDATA[
    .fil0 {fill:#49BE99}
   ]]>
  </style>
 </defs>
 <g id="Layer_x0020_1">
  <metadata id="CorelCorpID_0Corel-Layer"/>
  <g id="_1097172096">
   <path class="fil0" d="M11683 11023c289,0 538,-104 750,-310l-3634 -3975c-88,68 -172,135 -252,198 -272,219 -493,391 -662,513 -170,123 -395,248 -677,375 -282,128 -544,192 -788,192l-14 0c-243,0 -506,-64 -788,-192 -282,-128 -508,-252 -677,-375 -169,-122 -390,-294 -662,-513 -76,-61 -160,-128 -251,-199l-3635 3975c212,205 462,310 751,310l10538 0z"/>
   <path class="fil0" d="M723 4236c-272,-199 -513,-426 -723,-681l0 6047 3204 -3503c-641,-490 -1467,-1110 -2481,-1863z"/>
   <path class="fil0" d="M12113 4236c-975,721 -1803,1343 -2486,1864l3202 3502 0 -6047c-205,250 -444,477 -716,681z"/>
   <path class="fil0" d="M11683 0l-10538 0c-368,0 -651,135 -849,407 -199,271 -297,610 -297,1017 0,329 132,685 394,1069 262,383 542,685 837,904 162,125 651,497 1468,1116 441,333 824,625 1153,876 281,214 523,399 722,553 23,17 58,45 106,83 52,40 117,92 198,156 155,122 284,222 386,297 103,76 227,161 372,255 145,94 283,164 412,211 129,47 248,71 358,71l14 0c110,0 230,-23 359,-71 129,-47 266,-117 411,-211 146,-94 269,-179 372,-255 103,-75 232,-175 387,-297 80,-64 146,-116 197,-156 48,-37 84,-65 107,-83 155,-119 398,-303 725,-551 593,-451 1467,-1114 2625,-1994 349,-266 640,-587 873,-963 234,-376 351,-770 351,-1182 0,-345 -114,-639 -340,-885 -226,-245 -495,-368 -806,-368z"/>
  </g>
 </g>
</svg>
