<?xml version="1.0" encoding="UTF-8"?>
<!DOCTYPE svg PUBLIC "-//W3C//DTD SVG 1.1//EN" "http://www.w3.org/Graphics/SVG/1.1/DTD/svg11.dtd">
<!-- Creator: CorelDRAW X6 -->
<svg xmlns="http://www.w3.org/2000/svg" xml:space="preserve" width="50px" height="68px" version="1.1" style="shape-rendering:geometricPrecision; text-rendering:geometricPrecision; image-rendering:optimizeQuality; fill-rule:evenodd; clip-rule:evenodd"
viewBox="0 0 13126 17827"
 xmlns:xlink="http://www.w3.org/1999/xlink">
 <defs>
  <style type="text/css">
   <![CDATA[
    .fil0 {fill:#FF9500}
   ]]>
  </style>
 </defs>
 <g id="Layer_x0020_1">
  <metadata id="CorelCorpID_0Corel-Layer"/>
  <path class="fil0" d="M6563 0c-3619,0 -6563,2944 -6563,6563 0,944 193,1846 574,2680 1641,3590 4788,7381 5713,8458 69,81 170,127 276,127 107,0 208,-46 277,-127 925,-1076 4071,-4867 5712,-8458 381,-834 575,-1735 575,-2680 -1,-3619 -2945,-6563 -6564,-6563zm0 9972c-1880,0 -3409,-1529 -3409,-3409 0,-1880 1530,-3409 3409,-3409 1880,0 3409,1529 3409,3409 0,1880 -1529,3409 -3409,3409z"/>
 </g>
</svg>
