<?xml version="1.0" encoding="UTF-8"?>
<!DOCTYPE svg PUBLIC "-//W3C//DTD SVG 1.1//EN" "http://www.w3.org/Graphics/SVG/1.1/DTD/svg11.dtd">
<!-- Creator: CorelDRAW X6 -->
<svg xmlns="http://www.w3.org/2000/svg" xml:space="preserve" width="50px" height="50px" version="1.1" style="shape-rendering:geometricPrecision; text-rendering:geometricPrecision; image-rendering:optimizeQuality; fill-rule:evenodd; clip-rule:evenodd"
viewBox="0 0 12728 12728"
 xmlns:xlink="http://www.w3.org/1999/xlink">
 <defs>
  <style type="text/css">
   <![CDATA[
    .fil0 {fill:#D92340}
   ]]>
  </style>
 </defs>
 <g id="Layer_x0020_1">
  <path class="fil0" d="M6364 0c3515,0 6364,2850 6364,6364 0,3515 -2849,6364 -6364,6364 -3515,0 -6364,-2849 -6364,-6364 0,-3515 2849,-6364 6364,-6364zm2701 10130c-189,192 -388,371 -567,570 -260,292 -588,385 -959,364 -542,-29 -1045,-210 -1526,-446 -1073,-520 -1989,-1244 -2755,-2157 -567,-674 -1034,-1408 -1344,-2239 -150,-403 -256,-813 -224,-1248 21,-268 121,-496 317,-685 214,-203 413,-413 624,-620 274,-271 617,-267 891,0 171,168 335,335 503,503 164,164 328,324 488,488 285,289 285,624 0,913 -203,207 -406,413 -617,613 -54,54 -60,97 -32,164 136,328 335,620 556,891 446,549 952,1037 1558,1415 128,82 271,139 406,214 68,39 118,25 171,-32 203,-210 414,-417 620,-624 275,-271 617,-271 888,0 335,332 667,663 998,998 285,292 285,634 4,916zm-3162 -5540l107 -763c738,103 1408,438 1935,966 503,503 830,1134 948,1829l-759 132c-93,-538 -346,-1027 -735,-1415 -410,-410 -927,-670 -1497,-749zm4231 2032c-171,-998 -641,-1904 -1358,-2624 -756,-756 -1714,-1233 -2773,-1383l107 -763c1223,171 2335,724 3208,1601 831,831 1376,1882 1576,3037l-760 132z"/>
 </g>
</svg>
